
Genre:Drama
Language:English
 
http://www.imdb.com/title/tt1312254/

Source:BluRay.720p.DTS.x264-CHD Thanks!

Format : AVI
Format/Info : Audio Video Interleave
File size : 1.11 GiB
Duration : 1h 38mn
Overall bit rate : 1 624 Kbps

Video
ID : 0
Format : MPEG-4 Visual
Format profile : Advanced Simple@L5
Format settings, BVOP : Yes
Format settings, QPel : No
Format settings, GMC : No warppoints
Format settings, Matrix : Default (H.263)
Codec ID : XVID
Codec ID/Hint : XviD
Duration : 1h 38mn
Bit rate : 1 166 Kbps
Width : 640 pixels
Height : 264 pixels
Display aspect ratio : 2.40:1
Frame rate : 23.976 fps
Color space : YUV
Chroma subsampling : 4:2:0
Bit depth : 8 bits
Scan type : Progressive
Bits/(Pixel*Frame) : 0.288
Stream size : 820 MiB (72%)
Writing library : XviD 1.2.1 (UTC 2008-12-04)

Audio
ID : 1
Format : AC-3
Format/Info : Audio Coding 3
Mode extension : CM (complete main)
Codec ID : 2000
Duration : 1h 38mn
Bit rate mode : Constant
Bit rate : 448 Kbps
Channel(s) : 6 channels
Channel positions : Front: L C R, Side: L R, LFE
Sampling rate : 48.0 KHz
Bit depth : 16 bits
Stream size : 315 MiB (28%)
Alignment : Aligned on interleaves
Interleave, duration : 42 ms (1.00 video frame)
Interleave, preload duration : 512 ms


Plot:
In the early 1980s, in small-town Texas, dramatic events force a 19-year-old skating rink manager to look at his life in a very new way.

 
http://www.pix2links.com/images/73805000698563546121.png
 
http://www.pix2links.com/images/86616154358651101346.png
 
http://www.pix2links.com/images/36465226751807345362.png
 
http://www.pix2links.com/images/70518242284270011420.png